{
  "accessors": [
    {
      "name": "DrawCall_0020_1_0_positions",
      "componentType": 5126,
      "count": 8838,
      "min": [
        -54.01910400390625,
        -0.40106400847435,
        -32.60788345336914
      ],
      "max": [
        50.73431396484375,
        64.2061767578125,
        16.16839027404785
      ],
      "type": "VEC3",
      "bufferView": 0,
      "byteOffset": 0
    },
    {
      "name": "DrawCall_0020_1_0_texcoords",
      "componentType": 5126,
      "count": 8838,
      "min": [
        0.002070999937132001,
        0.00025599999935366213
      ],
      "max": [
        0.9980469942092896,
        0.9990230202674866
      ],
      "type": "VEC2",
      "bufferView": 1,
      "byteOffset": 0
    },
    {
      "name": "DrawCall_0020_1_0_indices",
      "componentType": 5123,
      "count": 37800,
      "min": [
        0
      ],
      "max": [
        8837
      ],
      "type": "SCALAR",
      "bufferView": 2,
      "byteOffset": 0
    }
  ],
  "asset": {
    "generator": "obj2gltf",
    "version": "2.0"
  },
  "buffers": [
    {
      "name": "1",
      "byteLength": 890860,
      "uri": "data:application/octet-stream;base64,"
    }
  ],
  "bufferViews": [
    {
      "name": "bufferView_0",
      "buffer": 0,
      "byteLength": 106056,
      "byteOffset": 0,
      "byteStride": 12,
      "target": 34962
    },
    {
      "name": "bufferView_1",
      "buffer": 0,
      "byteLength": 70704,
      "byteOffset": 106056,
      "byteStride": 8,
      "target": 34962
    },
    {
      "name": "bufferView_2",
      "buffer": 0,
      "byteLength": 75600,
      "byteOffset": 176760,
      "target": 34963
    },
    {
      "buffer": 0,
      "byteOffset": 252360,
      "byteLength": 638498
    }
  ],
  "images": [
    {
      "name": "duffuse",
      "mimeType": "image/png",
      "bufferView": 3
    }
  ],
  "materials": [
    {
      "name": "02___Default",
      "pbrMetallicRoughness": {
        "baseColorTexture": {
          "index": 0
        },
        "baseColorFactor": [
          1,
          1,
          1,
          1
        ],
        "metallicFactor": 0,
        "roughnessFactor": 0.990000001
      },
      "emissiveFactor": [
        0,
        0,
        0
      ],
      "alphaMode": "OPAQUE",
      "doubleSided": false
    }
  ],
  "meshes": [
    {
      "name": "DrawCall_0020_1",
      "primitives": [
        {
          "attributes": {
            "POSITION": 0,
            "TEXCOORD_0": 1
          },
          "indices": 2,
          "material": 0,
          "mode": 4
        }
      ]
    }
  ],
  "nodes": [
    {
      "name": "DrawCall_0020",
      "mesh": 0
    }
  ],
  "samplers": [
    {
      "magFilter": 9729,
      "minFilter": 9986,
      "wrapS": 10497,
      "wrapT": 10497
    }
  ],
  "scene": 0,
  "scenes": [
    {
      "nodes": [
        0
      ]
    }
  ],
  "textures": [
    {
      "name": "duffuse",
      "sampler": 0,
      "source": 0
    }
  ]
}
